# xmcd
#
# Track frame offsets:
#	150
#	29860
#	53452
#	69090
#	94802
#	108187
#	126050
#	150270
#	158560
#
# Disc length: 2450 seconds
#
# Revision: 2
# Processed by: cddbd v1.5.2PL0 Copyright (c) Steve Scherf et al.
# Submitted via: Jack! The Knife
#
DISCID=60099009
DTITLE=Megadeth - Rust In Peace
DYEAR=1990
DGENRE=Metal
TTITLE0=Holy Wars... The Punishment Due
TTITLE1=Hangar 18
TTITLE2=Take No Prisoners
TTITLE3=Five Magics
TTITLE4=Poison Was The Cure
TTITLE5=Lucretia
TTITLE6=Tornado Of Souls
TTITLE7=Dawn Patrol
TTITLE8=Rust In Peace... Polaris
EXTD=Heavy Metal
EXTT0=
EXTT1=
EXTT2=
EXTT3=
EXTT4=
EXTT5=
EXTT6=
EXTT7=
EXTT8=
PLAYORDER=
